<?xml version="1.0" encoding="utf-8"?>

<!DOCTYPE svg PUBLIC "-//W3C//DTD SVG 1.1//EN" "http://www.w3.org/Graphics/SVG/1.1/DTD/svg11.dtd">
<!-- Uploaded to: SVG Repo, www.svgrepo.com, Generator: SVG Repo Mixer Tools -->
<svg height="800px" width="800px" version="1.1" id="_x32_" xmlns="http://www.w3.org/2000/svg" xmlns:xlink="http://www.w3.org/1999/xlink"
	 viewBox="0 0 512 512"  xml:space="preserve">
<style type="text/css">
	.st0{fill:#000000;}
</style>
<g>
	<path class="st0" d="M419.714,92.113v119.499L205.976,84.002c-1.991-1.165-4.531-1.24-6.585-0.05
		c-2.002,1.138-3.292,3.329-3.292,5.682v105.555L9.864,84.002c-1.991-1.165-4.532-1.24-6.585-0.05C1.277,85.09,0,87.281,0,89.634
		v166.369v166.331c0,2.404,1.277,4.582,3.279,5.697c2.054,1.214,4.594,1.138,6.585-0.051l186.235-111.175v105.529
		c0,2.404,1.29,4.582,3.292,5.697c2.054,1.214,4.594,1.138,6.585-0.051l213.738-127.587v114.768H512V92.113H419.714z"/>
</g>
</svg>